name C:\Users\u0101727\Documents\MyRepositories\upper-imu-dc\Results\main_tracking\Case_47\FLX03_angularVelocities_groundFrame.mot
datacolumns 4
datarows 105
range 3.76000000 4.80000000
endheader 
time	radius_imu_x	radius_imu_y	radius_imu_z	
          3.76000000	         -0.00280400	          0.17693809	         -0.33574128	
          3.77000000	         -0.00676662	          0.17660586	         -0.35213694	
          3.78000000	         -0.00965918	          0.17735605	         -0.36681853	
          3.79000000	         -0.01150680	          0.17869037	         -0.37991419	
          3.80000000	         -0.01237042	          0.18015270	         -0.39152614	
          3.81000000	         -0.01233896	          0.18135702	         -0.40173009	
          3.82000000	         -0.01152144	          0.18199358	         -0.41058248	
          3.83000000	         -0.01003985	          0.18182015	         -0.41813166	
          3.84000000	         -0.00802324	          0.18064731	         -0.42442910	
          3.85000000	         -0.00560288	          0.17832495	         -0.42953773	
          3.86000000	         -0.00290808	          0.17473272	         -0.43353670	
          3.87000000	         -0.00006150	          0.16977408	         -0.43652261	
          3.88000000	          0.00282637	          0.16337248	         -0.43860841	
          3.89000000	          0.00566332	          0.15546748	         -0.43992101	
          3.90000000	          0.00838061	          0.14601204	         -0.44059861	
          3.91000000	          0.01093584	          0.13497418	         -0.44078728	
          3.92000000	          0.01331286	          0.12234725	         -0.44063625	
          3.93000000	          0.01551945	          0.10817214	         -0.44029069	
          3.94000000	          0.01758543	          0.09257179	         -0.43988120	
          3.95000000	          0.01956194	          0.07579323	         -0.43951178	
          3.96000000	          0.02152245	          0.05824120	         -0.43925013	
          3.97000000	          0.02356126	          0.04048872	         -0.43912497	
          3.98000000	          0.02578823	          0.02325825	         -0.43913183	
          3.99000000	          0.02831859	          0.00737871	         -0.43924533	
          4.00000000	          0.03125838	         -0.00627286	         -0.43943519	
          4.01000000	          0.03468984	         -0.01683461	         -0.43968211	
          4.02000000	          0.03865956	         -0.02351762	         -0.43999067	
          4.03000000	          0.04317283	         -0.02565393	         -0.44039716	
          4.04000000	          0.04819448	         -0.02273465	         -0.44097267	
          4.05000000	          0.05365477	         -0.01444101	         -0.44182298	
          4.06000000	          0.05945801	         -0.00067028	         -0.44308678	
          4.07000000	          0.06549175	          0.01844420	         -0.44493313	
          4.08000000	          0.07163465	          0.04252186	         -0.44755771	
          4.09000000	          0.07776190	          0.07093704	         -0.45117667	
          4.10000000	          0.08374797	          0.10283791	         -0.45601674	
          4.11000000	          0.08946679	          0.13718210	         -0.46230211	
          4.12000000	          0.09479018	          0.17278624	         -0.47023931	
          4.13000000	          0.09958620	          0.20838717	         -0.48000163	
          4.14000000	          0.10371935	          0.24271256	         -0.49171367	
          4.15000000	          0.10705427	          0.27455589	         -0.50543701	
          4.16000000	          0.10946261	          0.30284716	         -0.52115822	
          4.17000000	          0.11083205	          0.32671116	         -0.53878119	
          4.18000000	          0.11107607	          0.34550836	         -0.55812522	
          4.19000000	          0.11014296	          0.35885726	         -0.57892979	
          4.20000000	          0.10802243	          0.36663858	         -0.60086559	
          4.21000000	          0.10474905	          0.36898251	         -0.62355105	
          4.22000000	          0.10040188	          0.36624072	         -0.64657212	
          4.23000000	          0.09510093	          0.35894563	         -0.66950336	
          4.24000000	          0.08900105	          0.34776025	         -0.69192827	
          4.25000000	          0.08228401	          0.33342322	         -0.71345746	
          4.26000000	          0.07514942	          0.31669558	         -0.73374373	
          4.27000000	          0.06780554	          0.29831495	         -0.75249372	
          4.28000000	          0.06046099	          0.27896054	         -0.76947578	
          4.29000000	          0.05331879	          0.25922959	         -0.78452422	
          4.30000000	          0.04657323	          0.23962522	         -0.79753957	
          4.31000000	          0.04040916	          0.22055596	         -0.80848492	
          4.32000000	          0.03500237	          0.20234620	         -0.81737928	
          4.33000000	          0.03051910	          0.18525441	         -0.82428996	
          4.34000000	          0.02711295	          0.16949316	         -0.82932592	
          4.35000000	          0.02491854	          0.15524486	         -0.83263318	
          4.36000000	          0.02404291	          0.14266929	         -0.83439249	
          4.37000000	          0.02455617	          0.13190301	         -0.83481843	
          4.38000000	          0.02648419	          0.12305397	         -0.83415867	
          4.39000000	          0.02980552	          0.11619591	         -0.83269140	
          4.40000000	          0.03445331	          0.11136556	         -0.83071921	
          4.41000000	          0.04032247	          0.10856397	         -0.82855799	
          4.42000000	          0.04728108	          0.10776128	         -0.82652099	
          4.43000000	          0.05518381	          0.10890200	         -0.82490007	
          4.44000000	          0.06388435	          0.11190846	         -0.82394727	
          4.45000000	          0.07324419	          0.11667997	         -0.82386049	
          4.46000000	          0.08313597	          0.12308822	         -0.82477526	
          4.47000000	          0.09344200	          0.13097145	         -0.82676318	
          4.48000000	          0.10405029	          0.14013155	         -0.82983627	
          4.49000000	          0.11485139	          0.15033748	         -0.83395583	
          4.50000000	          0.12573860	          0.16133735	         -0.83904411	
          4.51000000	          0.13661246	          0.17287807	         -0.84499657	
          4.52000000	          0.14738803	          0.18472793	         -0.85169326	
          4.53000000	          0.15800235	          0.19669558	         -0.85900784	
          4.54000000	          0.16841936	          0.20863992	         -0.86681430	
          4.55000000	          0.17863109	          0.22046876	         -0.87499215	
          4.56000000	          0.18865475	          0.23212767	         -0.88343129	
          4.57000000	          0.19852633	          0.24358319	         -0.89203719	
          4.58000000	          0.20829224	          0.25480574	         -0.90073547	
          4.59000000	          0.21800131	          0.26575686	         -0.90947400	
          4.60000000	          0.22769898	          0.27638331	         -0.91822047	
          4.61000000	          0.23742531	          0.28661772	         -0.92695545	
          4.62000000	          0.24721665	          0.29638332	         -0.93566270	
          4.63000000	          0.25710895	          0.30559908	         -0.94431992	
          4.64000000	          0.26713997	          0.31418210	         -0.95289216	
          4.65000000	          0.27734729	          0.32204543	         -0.96132891	
          4.66000000	          0.28776174	          0.32909300	         -0.96956379	
          4.67000000	          0.29839855	          0.33521556	         -0.97751492	
          4.68000000	          0.30924976	          0.34029137	         -0.98508494	
          4.69000000	          0.32028037	          0.34419253	         -0.99216048	
          4.70000000	          0.33142830	          0.34679442	         -0.99861252	
          4.71000000	          0.34260658	          0.34798478	         -1.00429911	
          4.72000000	          0.35370632	          0.34766995	         -1.00907176	
          4.73000000	          0.36459935	          0.34577838	         -1.01278553	
          4.74000000	          0.37514090	          0.34226279	         -1.01531150	
          4.75000000	          0.38517274	          0.33710265	         -1.01654918	
          4.76000000	          0.39452635	          0.33030670	         -1.01643659	
          4.77000000	          0.40302633	          0.32191446	         -1.01495605	
          4.78000000	          0.41049459	          0.31199629	         -1.01213465	
          4.79000000	          0.41675704	          0.30065249	         -1.00803954	
          4.80000000	          0.42165438	          0.28801357	         -1.00276923	
